<?xml version="1.0" encoding="utf-8"?>
<!-- Generator: Adobe Illustrator 28.0.0, SVG Export Plug-In . SVG Version: 6.00 Build 0)  -->
<svg version="1.1" id="Layer_1" xmlns="http://www.w3.org/2000/svg" xmlns:xlink="http://www.w3.org/1999/xlink" x="0px" y="0px"
	 viewBox="0 0 80 80" style="enable-background:new 0 0 80 80;" xml:space="preserve">
<style type="text/css">
	.st0{fill:#FFFFFF;}
	.st1{opacity:0.75;fill:none;stroke:#FFFFFF;stroke-width:5;enable-background:new    ;}
</style>
<g>
	<path class="st0" d="M34.6,21.3h-6.7c-0.6,0-1,0.4-1,1v35.5c0,0.6,0.4,1,1,1h6.7c0.6,0,1-0.4,1-1V22.3
		C35.6,21.7,35.2,21.3,34.6,21.3z"/>
	<path class="st0" d="M52.1,21.3h-6.7c-0.6,0-1,0.4-1,1v35.5c0,0.6,0.4,1,1,1h6.7c0.6,0,1-0.4,1-1V22.3
		C53.1,21.7,52.6,21.3,52.1,21.3z"/>
</g>
<path class="st1" d="M2.5,40C2.5,19.3,19.3,2.5,40,2.5S77.5,19.3,77.5,40S60.7,77.5,40,77.5S2.5,60.7,2.5,40z"/>
</svg>
