<?xml version="1.0" encoding="utf-8"?>
<!-- Generator: Adobe Illustrator 28.0.0, SVG Export Plug-In . SVG Version: 6.00 Build 0)  -->
<svg version="1.1" id="Layer_1" xmlns="http://www.w3.org/2000/svg" xmlns:xlink="http://www.w3.org/1999/xlink" x="0px" y="0px"
	 viewBox="0 0 80 80" style="enable-background:new 0 0 80 80;" xml:space="preserve">
<style type="text/css">
	.st0{fill:#FFFFFF;}
	.st1{enable-background:new    ;}
	.st2{opacity:0.75;fill:none;stroke:#FFFFFF;stroke-width:5;enable-background:new    ;}
</style>
<path class="st0" d="M60.3,38c0.6,0.2,0.8,0.8,0.6,1.4c-0.1,0.3-0.3,0.5-0.6,0.6L30,57.5c-1,0.6-1.7,0.1-1.7-1v-35
	c0-1.1,0.8-1.5,1.7-1L60.3,38z"/>
<g class="st1">
	<path class="st0" d="M40,80C17.9,80,0,62.1,0,40C0,17.9,17.9,0,40,0s40,17.9,40,40C80,62.1,62.1,80,40,80z M40,5
		C20.7,5,5,20.7,5,40s15.7,35,35,35s35-15.7,35-35S59.3,5,40,5z"/>
</g>
<path class="st0" d="M-38.7,38c0.6,0.2,0.8,0.8,0.6,1.4c-0.1,0.3-0.3,0.5-0.6,0.6L-69,57.5c-1,0.6-1.7,0.1-1.7-1v-35
	c0-1.1,0.8-1.5,1.7-1L-38.7,38z"/>
<path class="st2" d="M-96.5,40c0-20.7,16.8-37.5,37.5-37.5S-21.5,19.3-21.5,40S-38.3,77.5-59,77.5S-96.5,60.7-96.5,40z"/>
</svg>
